<svg xmlns="http://www.w3.org/2000/svg" width="1240" height="1240"><path d="M804.731 370.668c-1.32 2.107-17.035 27.907-34.923 57.332l-62.315 102.5C654.476 617.702 622.07 669 619.998 669c-2.388 0-32.975-48.698-94.529-150.5-43.013-71.138-86.926-142.054-89.696-144.852-2.243-2.266-3.383-2.719-5.548-2.206-11.174 2.65-31.917 17.404-132.225 94.05-59.428 45.41-71.438 54.182-92.388 67.478-40.236 25.536-76.807 42.496-109.112 50.604-21.756 5.461-33.5 10.268-33.5 13.714 0 2.47 12.787 25.404 38.032 68.212 22.115 37.501 123.844 206.676 125.023 207.912 1.43 1.5 40.492-3.519 57.945-7.445 50.206-11.294 94.725-37.921 174.5-104.369 6.6-5.497 21.675-18.164 33.5-28.149C531.997 699.678 571.094 669 574.136 669c.5 0 2.983 1.912 5.518 4.249 8.494 7.829 17.339 23.03 17.312 29.751-.021 5.424-3.64 13.038-15.462 32.532-17.552 28.943-20.503 37.75-14.885 44.427 4.9 5.823 11.508 7.578 17.285 4.591 3.889-2.012 11.919-11.101 16.039-18.155C608.889 751.075 618.125 738 620 738s11.111 13.075 20.057 28.395c4.12 7.054 12.15 16.143 16.039 18.155 5.777 2.987 12.385 1.232 17.285-4.591 5.618-6.677 2.667-15.484-14.885-44.427-11.822-19.494-15.441-27.108-15.462-32.532-.027-6.721 8.818-21.922 17.312-29.751 2.535-2.337 5.018-4.249 5.518-4.249 3.64 0 39.229 28.016 92.136 72.53 102.385 86.142 145.773 113.231 200 124.868 10.908 2.341 55.036 8.899 55.662 8.273.669-.669 93.287-154.289 108.325-179.671 22.591-38.133 45.97-78.963 51.373-89.722l4.535-9.028-2.198-1.973c-3.143-2.822-8.55-4.701-22.208-7.717-37.619-8.31-78.586-28.273-135.489-66.024-31.823-21.112-42.747-29.204-104.672-77.536-58.063-45.318-95.064-72.063-104.514-75.544-1.216-.448-2.353.447-4.083 3.212M409.01 406.635C389.241 417.638 370 433.784 370 439.372c0 2.851 20.282 34.473 24.615 38.378 5.136 4.629 10.167 2.778 28.916-10.64 6.617-4.736 14.368-10.185 17.224-12.11 2.857-1.925 5.205-3.95 5.219-4.5.013-.55-5.735-10.45-12.774-22-16.177-26.542-15.496-25.502-16.691-25.489-.555.007-3.929 1.637-7.499 3.624m412.03-1.385c-7.022 10.965-27.038 44.465-27.037 45.25 0 .55 2.328 2.575 5.173 4.5 2.845 1.925 12.181 8.378 20.748 14.34 19.248 13.396 22.656 15.253 24.771 13.498 2.634-2.186 10.643-14.67 19.784-30.838 4.82-8.525 8.94-15.804 9.155-16.175.497-.858-37.511-26.716-44.404-30.208-6.266-3.176-6.388-3.181-8.19-.367m129.241 99c-5.454 5.935-27.394 46.221-27.224 49.988.095 2.121 23.582 21.12 34.401 27.828 10.174 6.308 12.194 6.329 17.447.184 3.79-4.434 14.079-21.078 22.49-36.381l3.644-6.631-11.269-9.947C973.365 514.811 956.248 502 953.306 502c-.526 0-1.888 1.012-3.025 2.25m-672.835 5.245c-2.72 1.373-12.221 8.129-21.112 15.014l-16.166 12.518 14.018 28.737c7.71 15.805 14.099 28.825 14.198 28.935.575.635 29.48-22.464 36.513-29.181 11.074-10.574 12.328-12.629 10.635-17.428-3.749-10.626-17.692-34.364-22.62-38.511-3.969-3.339-8.959-3.366-15.466-.084m103.83 16.786c-9.224 6.664-37.144 29.029-37.219 29.814-.11 1.151 14.544 27.475 18.638 33.479 5.595 8.207 10.801 12.72 13.637 11.821 5.237-1.66 13.843-8.274 33.436-25.694l12.268-10.907-1.888-3.147a1892.188 1892.188 0 01-7.127-12.113c-10.774-18.436-18.723-28.556-22.387-28.503-1.174.017-5.385 2.379-9.358 5.25m465.538-4.237c-2.666 1.555-13.074 15.888-19.34 26.634-3.151 5.402-6.579 11.238-7.619 12.969l-1.891 3.147 12.268 10.907c19.622 17.446 28.197 24.033 33.461 25.702 4.806 1.524 13.658-9.719 25.384-32.239l6.423-12.336-8-7.476c-18.318-17.118-32.973-28.377-36.862-28.322-1.176.017-2.897.473-3.824 1.014m-370.918 24.192c-26.905 19.46-27.814 20.158-27.857 21.398-.065 1.9 15.709 29.428 20.954 36.565 8.501 11.571 10.806 11.967 22.975 3.954 8.696-5.725 34.94-27.251 34.934-28.653-.007-1.493-30.224-45.827-31.506-46.226-.607-.189-9.382 5.644-19.5 12.962m262.274-4.486c-6.214 9.243-21.63 33.372-23.218 36.339-.776 1.45.913 3.372 9.805 11.156C742.949 605.171 755.892 614 761.047 614c3.132 0 11.912-9.512 18.275-19.799 6.341-10.251 13.929-24.992 13.483-26.193C792.393 566.9 746.028 533 744.924 533c-.48 0-3.519 3.938-6.754 8.75M138.5 591.08c-11.181 2.704-31.392 9.652-38.79 13.336-7.593 3.78-7.987 5.257-3.798 14.209 4.067 8.691 15.161 27.022 20.25 33.46l4.08 5.162 5.129-.604c15.031-1.77 53.097-13.092 54.267-16.141.609-1.587-2.268-7.367-13.689-27.502-11.155-19.667-14.286-24.022-17.205-23.928-1.234.04-5.844.943-10.244 2.008m949.26-.33c-5.157 5.822-26.76 45.593-26.76 49.265 0 1.443 1.088 2.542 3.528 3.561 7.944 3.319 32.584 10.29 44.076 12.469 7.746 1.469 10.428.232 17.239-7.952 9.191-11.045 21.629-33.746 20.982-38.298-.421-2.961-8.52-7.044-25.035-12.622-11.814-3.99-27.554-8.151-30.885-8.166-.877-.004-2.293.781-3.145 1.743m-113.348 33.419c-.901 1.743-7.013 11.898-13.582 22.565-6.568 10.668-12.176 20.005-12.461 20.748-.35.911 5.449 4.911 17.806 12.28 29.176 17.4 34.918 20.552 35.745 19.617 1.234-1.395 22.597-37.43 24.952-42.089 1.17-2.316 2.128-5.041 2.128-6.057 0-3.822-44.991-30.233-51.503-30.233-.795 0-2.183 1.426-3.085 3.169m-720.85.414C247.79 626.697 211 648.311 211 649.588c0 1.746 9.705 21.107 15.495 30.912 9.677 16.388 14.071 18.234 27.125 11.396 10.617-5.561 29.806-18.351 32.312-21.537 3.234-4.111 2.347-7.465-6.018-22.762-8.26-15.107-11.757-20.194-15.64-22.755-3.271-2.157-5.39-2.208-10.712-.259m107.422 17.229c-4.636 2.726-36.369 24.979-43.749 30.68-.525.405 18.093 33.143 22.131 38.917 5.55 7.934 6.669 8.535 11.132 5.985 6.45-3.686 44.623-31.546 45.167-32.964 1.288-3.356-24.66-46.43-27.97-46.43-.125 0-3.145 1.715-6.711 3.812m511.215-1.782c-4.923 4.585-17.475 24.37-27.013 42.578-1.011 1.93-.073 2.909 11.105 11.589 18.075 14.037 34.523 24.972 37.018 24.61 3.026-.438 8.229-7.796 19.661-27.804l10.002-17.503-3.236-2.814C908.781 661.161 877.103 638 875.03 638c-.359 0-1.633.913-2.831 2.03m-405.762 13.318c-11.144 6.374-34.809 23.928-39.048 28.966-4.074 4.842-3.047 9.009 6.629 26.893C443.331 726.422 450.511 738 451.875 738c2.186 0 50.125-37.134 50.125-38.828 0-.426-3.281-6.152-7.291-12.723a1478.048 1478.048 0 01-14.1-23.699c-4.37-7.542-7.399-11.746-8.459-11.738-.907.007-3.479 1.058-5.713 2.336m299.416-.598c-2.086 2.506-5.864 8.469-17.559 27.715-9.748 16.041-10.214 17.053-8.552 18.6C755.143 713.397 785.396 738 787.62 738c2.125 0 16.926-23.205 24.9-39.039 3.836-7.618 4.304-11.34 1.864-14.823-3.321-4.742-32.398-26.498-42.084-31.489-4.016-2.069-4.648-2.059-6.447.101M217 726.645c-8.945 1.484-19.501 4.227-33 8.579-8.525 2.748-15.829 5.193-16.232 5.434-.908.543 22.021 34.995 26.842 40.332 4.192 4.64 9.039 6.476 14.743 5.584 6.73-1.053 32.469-8.48 37.368-10.783 8.317-3.91 8.659-9.111 1.53-23.291-6.706-13.338-12.608-21.1-18.23-23.975-2.978-1.522-9.498-2.464-13.021-1.88m795.5.258c-3.6 1.601-7.226 6.382-15.905 20.972-11.933 20.059-12.409 24.124-3.344 28.531 7.489 3.641 31.584 9.594 38.832 9.594 7.454 0 12.475-2.397 17.23-8.226 4.811-5.897 22.959-37.923 21.981-38.79-1.307-1.161-45.674-11.903-51.449-12.457-2.94-.283-6.245-.114-7.345.376m-694 33.904c-31.827 16.307-32.783 16.906-32.029 20.061 1.31 5.481 17.114 30.652 26.875 42.803 6.149 7.653 7.549 8.182 13.888 5.249 4.536-2.098 42.405-24.24 43.763-25.588.617-.612-1.971-5.295-17.727-32.082-6.874-11.687-12.785-21.239-13.134-21.226-.35.013-10.086 4.866-21.636 10.783m574.397 1.443a4746.664 4746.664 0 01-15.489 26.176c-4.569 7.66-8.105 14.255-7.856 14.658.802 1.298 30.142 18.879 38.424 23.024 4.416 2.21 9.511 4.259 11.322 4.553 2.902.471 3.743.036 7.085-3.663 6.07-6.719 14.167-19.848 21.29-34.518 5.627-11.591 6.405-13.824 5.22-14.972-1.12-1.084-51.598-27.508-52.55-27.508-.147 0-3.497 5.513-7.446 12.25" fill="undefined" fill-rule="evenodd"/></svg>